<svg width="16" height="22" viewBox="0 0 16 22" fill="none" xmlns="http://www.w3.org/2000/svg">
<path d="M7.72509 20.2419C5.66173 20.2419 3.72165 19.4492 2.26262 18.0096C0.803589 16.5699 0 14.6561 0 12.6203C0 10.5845 0.803589 8.67132 2.26262 7.23202C3.72165 5.79272 5.66173 5 7.72509 5C8.94757 5 10.1169 5.27355 11.2012 5.81316C11.5206 5.97191 11.6488 6.35618 11.4875 6.67129C11.3266 6.98641 10.937 7.11279 10.6176 6.95404C9.71593 6.50539 8.74279 6.27783 7.72475 6.27783C4.17922 6.27783 1.29465 9.12338 1.29465 12.6206C1.29465 16.1179 4.17922 18.9648 7.72475 18.9648C11.2703 18.9648 14.1559 16.1189 14.1559 12.6206C14.1559 12.2837 14.1289 11.9458 14.0758 11.6164C14.0195 11.2679 14.2605 10.9408 14.6134 10.8853C14.9667 10.8301 15.2986 11.0675 15.3545 11.4157C15.4184 11.8112 15.4505 12.2166 15.4505 12.6206C15.4505 14.6564 14.6469 16.5706 13.1876 18.0099C11.7282 19.4496 9.78811 20.2423 7.7244 20.2423L7.72509 20.2419Z" fill="#FFB803"/>
<path d="M7.21574 16.0476C7.20849 16.0476 7.20124 16.0476 7.19433 16.0476C6.86316 16.0415 6.55028 15.897 6.33376 15.6497L3.90262 12.8733C3.482 12.3926 3.53553 11.6667 4.02279 11.2518C4.50971 10.8368 5.24596 10.8896 5.66658 11.3703L7.24786 13.1762L13.9811 6.03792C14.4197 5.57291 15.157 5.54702 15.6284 5.97932C16.0998 6.41197 16.126 7.13928 15.6878 7.60429L8.06906 15.6811C7.84839 15.9151 7.53932 16.0476 7.21574 16.0476Z" fill="#FFB803"/>
</svg>
