<svg width="121" height="120" viewBox="0 0 121 120" fill="none" xmlns="http://www.w3.org/2000/svg">
<path d="M0.75 60C0.75 26.8629 27.6129 0 60.75 0V0C93.8871 0 120.75 26.8629 120.75 60V60C120.75 93.1371 93.8871 120 60.75 120V120C27.6129 120 0.75 93.1371 0.75 60V60Z" fill="white"/>
<g clip-path="url(#clip0_1291_1954)">
<path d="M84.5654 61.432C85.0837 60.6634 85.3867 59.738 85.3867 58.7432V57.8241C85.3867 55.1654 83.2236 53.0023 80.5649 53.0023C79.2384 53.0023 78.0353 53.541 77.1626 54.4109C74.9046 47.6955 68.5499 42.8447 61.0833 42.8447C53.6167 42.8447 47.2621 47.6954 45.0041 54.4109C44.1314 53.541 42.9284 53.0023 41.6018 53.0023C38.9431 53.0023 36.78 55.1654 36.78 57.8241V58.7432C36.78 59.738 37.0829 60.6634 37.6013 61.432C34.2636 62.1353 31.75 65.1024 31.75 68.6463V70.9533C31.75 71.586 32.2631 72.0991 32.8958 72.0991H38.8542C39.4869 72.0991 40 71.586 40 70.9533C40 70.3206 39.4869 69.8074 38.8542 69.8074H34.0417V68.6463C34.0417 65.8444 36.3212 63.5648 39.1231 63.5648H44.5462C44.986 65.4991 45.7568 67.3091 46.7967 68.9309L33.7229 82.0047C32.0488 83.6789 32.0488 86.4031 33.723 88.0774C34.5602 88.9146 35.6596 89.333 36.7592 89.333C37.8589 89.333 38.9586 88.9144 39.7957 88.0774L47.0033 80.8697C47.4508 80.4222 47.4508 79.6967 47.0033 79.2491C46.5558 78.8018 45.8305 78.8018 45.3828 79.2491L38.1753 86.4569C37.3944 87.2376 36.1241 87.2375 35.3433 86.457C34.5627 85.6762 34.5627 84.4058 35.3433 83.6251L48.1775 70.791C51.2904 74.4419 55.9208 76.7614 61.0833 76.7614C69.1418 76.7614 75.9047 71.1113 77.6205 63.5648H83.0436C85.8455 63.5648 88.125 65.8444 88.125 68.6463V69.8074H77.3542C76.7214 69.8074 76.2083 70.3206 76.2083 70.9533C76.2083 71.586 76.7214 72.0991 77.3542 72.0991H89.2708C89.9036 72.0991 90.4167 71.586 90.4167 70.9533V68.6463C90.4167 65.1024 87.9031 62.1353 84.5654 61.432ZM44.1319 58.7433C44.1319 60.1383 42.9969 61.2733 41.6018 61.2733C40.2066 61.2733 39.0716 60.1383 39.0716 58.7433V57.8242C39.0716 56.429 40.2066 55.2941 41.6018 55.2941C42.9969 55.2941 44.1319 56.429 44.1319 57.8242V58.7433ZM61.0833 74.4697C52.9962 74.4697 46.4167 67.8902 46.4167 59.8031C46.4167 51.7159 52.9962 45.1364 61.0833 45.1364C69.1705 45.1364 75.75 51.7159 75.75 59.8031C75.75 67.8902 69.1705 74.4697 61.0833 74.4697ZM83.0949 58.7433C83.0949 60.1383 81.96 61.2733 80.5648 61.2733C79.1696 61.2733 78.0347 60.1383 78.0347 58.7433V57.8242C78.0347 56.429 79.1696 55.2941 80.5648 55.2941C81.96 55.2941 83.0949 56.429 83.0949 57.8242V58.7433Z" fill="#229E7C"/>
<path d="M61.0833 47.4277C54.2596 47.4277 48.7083 52.9791 48.7083 59.8027C48.7083 63.3445 50.2043 66.5431 52.597 68.801C52.6379 68.8452 52.6818 68.8869 52.7299 68.9247C54.9329 70.9438 57.8666 72.1777 61.0833 72.1777C64.3 72.1777 67.2336 70.9437 69.4366 68.9247C69.4847 68.887 69.5286 68.8452 69.5695 68.801C71.9623 66.5431 73.4583 63.3445 73.4583 59.8027C73.4583 52.9792 67.9069 47.4277 61.0833 47.4277ZM61.0833 69.8861C58.7271 69.8861 56.5573 69.0736 54.8388 67.7143C56.0563 65.4107 58.4288 63.9613 61.0833 63.9613C63.7377 63.9613 66.1103 65.4107 67.3277 67.7143C65.6092 69.0736 63.4394 69.8861 61.0833 69.8861ZM58.6686 59.255V58.3648C58.6686 57.0334 59.7518 55.9502 61.0833 55.9502C62.4147 55.9502 63.4979 57.0334 63.4979 58.3648V59.255C63.4979 60.5865 62.4147 61.6696 61.0833 61.6696C59.7518 61.6696 58.6686 60.5865 58.6686 59.255ZM69.0038 66.036C67.9541 64.3611 66.4177 63.0838 64.6194 62.3555C65.3469 61.5268 65.7895 60.442 65.7895 59.2551V58.3649C65.7895 55.77 63.6782 53.6587 61.0833 53.6587C58.4883 53.6587 56.377 55.77 56.377 58.3649V59.2551C56.377 60.442 56.8195 61.5268 57.5471 62.3555C55.7488 63.0839 54.2125 64.3611 53.1627 66.036C51.8088 64.3193 50.9999 62.1538 50.9999 59.8027C50.9999 54.2428 55.5233 49.7194 61.0833 49.7194C66.6432 49.7194 71.1666 54.2428 71.1666 59.8027C71.1666 62.1538 70.3577 64.3193 69.0038 66.036Z" fill="#229E7C"/>
<path d="M50.0687 76.1844C49.8556 75.9712 49.56 75.8486 49.2586 75.8486C48.9573 75.8486 48.6616 75.9712 48.4485 76.1844C48.2355 76.3975 48.1128 76.6931 48.1128 76.9945C48.1128 77.2958 48.2354 77.5914 48.4485 77.8046C48.6616 78.0176 48.9573 78.1403 49.2586 78.1403C49.56 78.1403 49.8556 78.0177 50.0687 77.8046C50.2817 77.5914 50.4045 77.2958 50.4045 76.9945C50.4045 76.6931 50.2819 76.3975 50.0687 76.1844Z" fill="#229E7C"/>
<path d="M61.1065 30.668C60.4738 30.668 59.9607 31.1811 59.9607 31.8138V35.7124C59.9607 36.3452 60.4738 36.8582 61.1065 36.8582C61.7393 36.8582 62.2524 36.3451 62.2524 35.7124V31.8138C62.2524 31.1811 61.7393 30.668 61.1065 30.668Z" fill="#229E7C"/>
<path d="M61.9158 38.6805C61.7028 38.4673 61.4082 38.3447 61.1058 38.3447C60.8043 38.3447 60.5088 38.4672 60.2957 38.6805C60.0826 38.8937 59.96 39.1892 59.96 39.4906C59.96 39.7919 60.0825 40.0875 60.2957 40.3005C60.5088 40.5137 60.8043 40.6364 61.1058 40.6364C61.4083 40.6364 61.7028 40.5138 61.9158 40.3005C62.1289 40.0875 62.2516 39.7919 62.2516 39.4906C62.2516 39.1892 62.129 38.8936 61.9158 38.6805Z" fill="#229E7C"/>
<path d="M70.8206 35.1626C70.3731 34.7153 69.6478 34.7153 69.2001 35.1626L67.1862 37.1766C66.7387 37.624 66.7387 38.3496 67.1862 38.7971C67.4101 39.0208 67.7032 39.1327 67.9965 39.1327C68.2898 39.1327 68.5829 39.0208 68.8067 38.7971L70.8206 36.7832C71.2681 36.3358 71.2681 35.6102 70.8206 35.1626Z" fill="#229E7C"/>
<path d="M54.9999 37.1901L52.9666 35.1568C52.5191 34.7095 51.7938 34.7095 51.3461 35.1568C50.8986 35.6042 50.8986 36.3298 51.3461 36.7773L53.3795 38.8106C53.6033 39.0343 53.8965 39.1462 54.1897 39.1462C54.4829 39.1462 54.7761 39.0343 54.9999 38.8106C55.4474 38.3632 55.4474 37.6376 54.9999 37.1901Z" fill="#229E7C"/>
</g>
<defs>
<clipPath id="clip0_1291_1954">
<rect width="58.6667" height="58.6667" fill="white" transform="translate(31.75 30.667)"/>
</clipPath>
</defs>
</svg>
