<svg width="33" height="32" viewBox="0 0 33 32" fill="none" xmlns="http://www.w3.org/2000/svg">
<path d="M0.5 16C0.5 7.16344 7.66344 0 16.5 0V0C25.3366 0 32.5 7.16344 32.5 16V16C32.5 24.8366 25.3366 32 16.5 32V32C7.66344 32 0.5 24.8366 0.5 16V16Z" fill="#229E7C"/>
<path d="M15.7755 23.1111V8.88889H17.2514V23.1111H15.7755ZM23.6111 16.5872H9.38889V15.2563H23.6111V16.5872Z" fill="white"/>
<path fill-rule="evenodd" clip-rule="evenodd" d="M14.8866 24V17.476H8.5V14.3674H14.8866V8H18.1403V14.3674H24.5V17.476H18.1403V24H14.8866ZM17.2514 16.5872H23.6111V15.2563H17.2514V8.88889H15.7755V15.2563H9.38889V16.5872H15.7755V23.1111H17.2514V16.5872Z" fill="white"/>
</svg>
