<svg width="121" height="120" viewBox="0 0 121 120" fill="none" xmlns="http://www.w3.org/2000/svg">
<path d="M0.625 60C0.625 26.8629 27.4879 0 60.625 0V0C93.7621 0 120.625 26.8629 120.625 60V60C120.625 93.1371 93.7621 120 60.625 120V120C27.4879 120 0.625 93.1371 0.625 60V60Z" fill="white"/>
<path d="M61.8747 38.0003H56.3747C55.8687 38.0003 55.458 37.5897 55.458 37.0837C55.458 36.5777 55.8687 36.167 56.3747 36.167H61.8747C62.3807 36.167 62.7913 36.5777 62.7913 37.0837C62.7913 37.5897 62.3807 38.0003 61.8747 38.0003Z" fill="#229E7C" stroke="#229E7C" stroke-width="0.225"/>
<path d="M69.208 87.4997H49.0413C46.5132 87.4997 44.458 85.4427 44.458 82.9163V70.083C44.458 69.577 44.8687 69.1663 45.3747 69.1663C45.8807 69.1663 46.2913 69.577 46.2913 70.083V82.9163C46.2913 84.4325 47.5252 85.6663 49.0413 85.6663H69.208C70.7242 85.6663 71.958 84.4325 71.958 82.9163V51.7497C71.958 51.2437 72.3687 50.833 72.8747 50.833C73.3807 50.833 73.7913 51.2437 73.7913 51.7497V82.9163C73.7913 85.4427 71.7362 87.4997 69.208 87.4997Z" fill="#229E7C" stroke="#229E7C" stroke-width="0.225"/>
<path d="M72.8747 39.8333C72.3687 39.8333 71.958 39.4227 71.958 38.9167V37.0833C71.958 35.5672 70.7242 34.3333 69.208 34.3333H49.0413C47.5252 34.3333 46.2913 35.5672 46.2913 37.0833V38.9167C46.2913 39.4227 45.8807 39.8333 45.3747 39.8333C44.8687 39.8333 44.458 39.4227 44.458 38.9167V37.0833C44.458 34.557 46.5132 32.5 49.0413 32.5H69.208C71.7362 32.5 73.7913 34.557 73.7913 37.0833V38.9167C73.7913 39.4227 73.3807 39.8333 72.8747 39.8333Z" fill="#229E7C" stroke="#229E7C" stroke-width="0.225"/>
<path d="M58.208 76.5003H50.8747C50.3687 76.5003 49.958 76.0897 49.958 75.5837C49.958 75.0777 50.3687 74.667 50.8747 74.667H58.208C58.714 74.667 59.1247 75.0777 59.1247 75.5837C59.1247 76.0897 58.714 76.5003 58.208 76.5003Z" fill="#229E7C" stroke="#229E7C" stroke-width="0.225"/>
<path d="M63.708 80.1663H50.8747C50.3687 80.1663 49.958 79.7557 49.958 79.2497C49.958 78.7437 50.3687 78.333 50.8747 78.333H63.708C64.214 78.333 64.6247 78.7437 64.6247 79.2497C64.6247 79.7557 64.214 80.1663 63.708 80.1663Z" fill="#229E7C" stroke="#229E7C" stroke-width="0.225"/>
<path d="M67.3747 72.8333H50.8747C50.3687 72.8333 49.958 72.4227 49.958 71.9167C49.958 71.4107 50.3687 71 50.8747 71H67.3747C67.8807 71 68.2913 71.4107 68.2913 71.9167C68.2913 72.4227 67.8807 72.8333 67.3747 72.8333Z" fill="#229E7C" stroke="#229E7C" stroke-width="0.225"/>
<path d="M48.1248 56.3337C45.5967 56.3337 43.5415 54.2767 43.5415 51.7503C43.5415 49.224 45.5967 47.167 48.1248 47.167C50.653 47.167 52.7082 49.224 52.7082 51.7503C52.7082 54.2767 50.653 56.3337 48.1248 56.3337ZM48.1248 49.0003C46.6087 49.0003 45.3748 50.2342 45.3748 51.7503C45.3748 53.2665 46.6087 54.5003 48.1248 54.5003C49.641 54.5003 50.8748 53.2665 50.8748 51.7503C50.8748 50.2342 49.641 49.0003 48.1248 49.0003Z" fill="#229E7C" stroke="#229E7C" stroke-width="0.225"/>
<path d="M48.125 67.3337C44.9093 67.3337 41.8238 66.12 39.4368 63.92C39.1912 63.6927 39.0885 63.3498 39.1692 63.0272C39.8732 60.1653 42.4252 58.167 45.375 58.167H50.875C53.8248 58.167 56.3768 60.1653 57.0827 63.0253C57.1633 63.3498 57.0588 63.6927 56.815 63.9182C54.4262 66.12 51.3407 67.3337 48.125 67.3337ZM41.1088 62.9465C45.0725 66.2483 51.1775 66.2483 55.1412 62.9465C54.4812 61.1883 52.7963 60.0003 50.875 60.0003H45.375C43.4537 60.0003 41.7688 61.1883 41.1088 62.9465Z" fill="#229E7C" stroke="#229E7C" stroke-width="0.225"/>
<path d="M48.1248 67.3337C41.05 67.3337 35.2915 61.577 35.2915 54.5003C35.2915 47.4237 41.05 41.667 48.1248 41.667C55.1997 41.667 60.9582 47.4237 60.9582 54.5003C60.9582 61.577 55.1997 67.3337 48.1248 67.3337ZM48.1248 43.5003C42.0583 43.5003 37.1248 48.4338 37.1248 54.5003C37.1248 60.5668 42.0583 65.5003 48.1248 65.5003C54.1913 65.5003 59.1248 60.5668 59.1248 54.5003C59.1248 48.4338 54.1913 43.5003 48.1248 43.5003Z" fill="#229E7C" stroke="#229E7C" stroke-width="0.225"/>
<path d="M39.8747 72.7414C39.3687 72.7414 38.958 72.4224 38.958 71.9164V71.7331C38.958 71.2271 39.3687 70.8164 39.8747 70.8164C40.3807 70.8164 40.7913 71.2271 40.7913 71.7331C40.7913 72.2391 40.3807 72.7414 39.8747 72.7414Z" fill="#229E7C" stroke="#229E7C" stroke-width="0.225"/>
<path d="M39.8747 76.4084C39.3687 76.4084 38.958 76.0894 38.958 75.5834V75.4001C38.958 74.8941 39.3687 74.4834 39.8747 74.4834C40.3807 74.4834 40.7913 74.8941 40.7913 75.4001C40.7913 75.9061 40.3807 76.4084 39.8747 76.4084Z" fill="#229E7C" stroke="#229E7C" stroke-width="0.225"/>
<path d="M39.8747 80.0744C39.3687 80.0744 38.958 79.7554 38.958 79.2494V79.0661C38.958 78.5601 39.3687 78.1494 39.8747 78.1494C40.3807 78.1494 40.7913 78.5601 40.7913 79.0661C40.7913 79.5721 40.3807 80.0744 39.8747 80.0744Z" fill="#229E7C" stroke="#229E7C" stroke-width="0.225"/>
<path d="M76.2482 80.1667H74.7082C74.2022 80.1667 73.7915 79.756 73.7915 79.25C73.7915 78.744 74.2022 78.3333 74.7082 78.3333H75.5093L75.9585 76.2525C76.0318 75.9078 76.2977 75.6383 76.6387 75.5558C77.504 75.3468 78.3473 74.9948 79.1448 74.509C79.44 74.3257 79.8195 74.3312 80.1147 74.5182L81.9297 75.6787L83.0535 74.5457L81.893 72.7453C81.7023 72.4502 81.6987 72.0707 81.8802 71.7718C82.366 70.9743 82.718 70.131 82.9252 69.2657C83.0077 68.9247 83.2753 68.6607 83.6182 68.5837L85.7063 68.1198V66.5487L83.6182 66.0848C83.2753 66.0078 83.0077 65.7438 82.9252 65.4028C82.718 64.5375 82.3642 63.6942 81.8802 62.8967C81.6968 62.5978 81.7005 62.2202 81.8912 61.925L83.0535 60.1082L81.9315 58.9862L80.1147 60.1485C79.8213 60.3373 79.4418 60.341 79.1448 60.1577C78.3455 59.6718 77.5022 59.3198 76.6387 59.1108C76.2958 59.0283 76.0318 58.757 75.9585 58.4142L75.5093 56.3333H74.7082C74.2022 56.3333 73.7915 55.9227 73.7915 55.4167C73.7915 54.9107 74.2022 54.5 74.7082 54.5H76.2482C76.679 54.5 77.053 54.8025 77.1428 55.2242L77.6323 57.4847C78.3033 57.6882 78.9615 57.9632 79.5958 58.306L81.5648 57.0465C81.9278 56.8173 82.4027 56.865 82.707 57.1712L84.8722 59.3345C85.1765 59.6388 85.2278 60.1137 84.995 60.4767L83.7355 62.4457C84.0783 63.0818 84.3533 63.74 84.5568 64.4128L86.821 64.9152C87.2408 65.0087 87.5397 65.3808 87.5397 65.8098V68.8532C87.5397 69.2822 87.2408 69.6562 86.821 69.7478L84.5568 70.2502C84.3533 70.923 84.0783 71.5812 83.7355 72.2155L84.9932 74.1662C85.2278 74.5273 85.1783 75.004 84.874 75.3083L82.7088 77.49C82.4045 77.7962 81.9297 77.8493 81.5648 77.6165L79.5958 76.357C78.9597 76.6998 78.3033 76.9748 77.6323 77.1783L77.1428 79.4388C77.053 79.8642 76.679 80.1667 76.2482 80.1667Z" fill="#229E7C" stroke="#229E7C" stroke-width="0.225"/>
<path d="M76.6392 72.4077C76.2945 72.4077 75.9645 72.2115 75.8087 71.8778C75.596 71.4195 75.794 70.8732 76.2524 70.6605C77.5412 70.0592 78.3754 68.7538 78.3754 67.333C78.3754 65.3108 76.7309 63.6663 74.7087 63.6663C74.2119 63.6663 73.7334 63.7635 73.2842 63.9542C72.8204 64.154 72.2814 63.9358 72.0834 63.4683C71.8854 63.0027 72.1035 62.4655 72.5692 62.2675C73.2439 61.9797 73.9662 61.833 74.7087 61.833C77.741 61.833 80.2087 64.3007 80.2087 67.333C80.2087 69.4652 78.9584 71.4232 77.026 72.3215C76.8995 72.3802 76.7694 72.4077 76.6392 72.4077Z" fill="#229E7C" stroke="#229E7C" stroke-width="0.225"/>
<path d="M79.2917 49.0003H68.2917C66.2695 49.0003 64.625 47.3558 64.625 45.3337C64.625 43.3115 66.2695 41.667 68.2917 41.667H79.2917C81.3138 41.667 82.9583 43.3115 82.9583 45.3337C82.9583 47.3558 81.3138 49.0003 79.2917 49.0003ZM68.2917 43.5003C67.2797 43.5003 66.4583 44.3235 66.4583 45.3337C66.4583 46.3438 67.2797 47.167 68.2917 47.167H79.2917C80.3037 47.167 81.125 46.3438 81.125 45.3337C81.125 44.3235 80.3037 43.5003 79.2917 43.5003H68.2917Z" fill="#229E7C" stroke="#229E7C" stroke-width="0.225"/>
</svg>
